<svg width="24" height="24" viewBox="0 0 24 24" fill="none" xmlns="http://www.w3.org/2000/svg">
<path d="M19.7877 11.5L19.3424 11.2726C19.2694 11.4155 19.2694 11.5846 19.3424 11.7274L19.7877 11.5ZM4.46233 11.5L4.90765 11.7274C4.98055 11.5846 4.98055 11.4154 4.90765 11.2726L4.46233 11.5ZM19.75 9.625C19.75 10.1977 19.6085 10.7513 19.3424 11.2726L20.233 11.7274C20.5657 11.0758 20.75 10.3672 20.75 9.625H19.75ZM12.125 4.5C14.2798 4.5 16.2089 5.1055 17.5856 6.05862C18.9643 7.01309 19.75 8.28215 19.75 9.625H20.75C20.75 7.86124 19.7168 6.3178 18.1548 5.23643C16.5909 4.1537 14.4575 3.5 12.125 3.5V4.5ZM4.5 9.625C4.5 8.28215 5.28568 7.01309 6.66436 6.05862C8.04109 5.1055 9.97018 4.5 12.125 4.5V3.5C9.79251 3.5 7.6591 4.1537 6.09515 5.23643C4.53317 6.3178 3.5 7.86124 3.5 9.625H4.5ZM4.90765 11.2726C4.64149 10.7513 4.5 10.1977 4.5 9.625H3.5C3.5 10.3672 3.68435 11.0758 4.01701 11.7274L4.90765 11.2726ZM4.5 13.375C4.5 12.8023 4.64149 12.2487 4.90765 11.7274L4.01701 11.2726C3.68435 11.9242 3.5 12.6328 3.5 13.375H4.5ZM12.125 18.5C9.97018 18.5 8.04109 17.8945 6.66436 16.9414C5.28568 15.9869 4.5 14.7178 4.5 13.375H3.5C3.5 15.1388 4.53317 16.6822 6.09515 17.7636C7.6591 18.8463 9.79251 19.5 12.125 19.5V18.5ZM19.75 13.375C19.75 14.7178 18.9643 15.9869 17.5856 16.9414C16.2089 17.8945 14.2798 18.5 12.125 18.5V19.5C14.4575 19.5 16.5909 18.8463 18.1548 17.7636C19.7168 16.6822 20.75 15.1388 20.75 13.375H19.75ZM19.3424 11.7274C19.6085 12.2487 19.75 12.8023 19.75 13.375H20.75C20.75 12.6328 20.5657 11.9242 20.233 11.2726L19.3424 11.7274Z" fill="#111111"/>
<ellipse cx="12.125" cy="9.625" rx="8.125" ry="5.625" stroke="#111111" stroke-linecap="round" stroke-linejoin="round"/>
</svg>
