<svg width="24" height="25" viewBox="0 0 24 25" fill="none" xmlns="http://www.w3.org/2000/svg">
<path d="M12.0326 24.3868C10.734 24.3868 9.48043 24.1774 8.30804 23.7905C9.48043 24.1752 10.734 24.3868 12.0326 24.3868Z" fill="#111111"/>
<path d="M11.2685 2.86729C12.5423 2.66474 14.0326 2.44625 15.0629 2.33928C15.9062 2.25052 17.0988 2.32563 18.898 2.36887C18.5079 2.09121 18.1021 1.83631 17.6805 1.60645C16.0978 1.63376 14.4745 1.71341 13.4081 1.70658C11.2617 1.69065 6.89008 1.68383 6.38731 1.67927C6.33545 1.67927 6.27007 1.67927 6.19792 1.67927C5.63428 1.99562 5.09994 2.35522 4.59717 2.75577C5.26678 2.78308 6.02206 2.83543 6.94193 2.91736C9.46256 3.14268 9.99464 3.06757 11.2685 2.86729V2.86729Z" fill="#111111"/>
<path d="M12.7249 4.55865C14.6616 4.62693 19.1324 4.60417 21.0669 4.63603C21.13 4.63603 21.2134 4.63603 21.3103 4.63603C20.8707 4.09209 20.3837 3.58684 19.8584 3.12711C19.2609 3.07932 18.8123 3.0338 18.5552 3.01559C16.3458 2.85173 15.4462 2.94276 13.6357 3.18173C11.8253 3.41843 10.5898 3.81671 9.84128 3.82581C9.09051 3.83719 6.63978 3.60505 5.27124 3.45712C4.82935 3.4116 4.30628 3.43436 3.76293 3.4776C3.30525 3.91457 2.88364 4.38568 2.49811 4.88866C4.04926 4.82721 5.61394 4.76576 6.58116 4.72479C8.40061 4.64286 10.7882 4.48582 12.7249 4.55638V4.55865Z" fill="#111111"/>
<path d="M2.28156 6.82749L3.37729 6.85708C4.81346 6.91853 6.4593 6.92763 8.13446 6.81611C9.80961 6.70459 11.097 6.81611 13.6153 7.0437C16.136 7.26902 16.641 7.50571 17.9441 7.05281C18.6679 6.80018 19.7907 6.63404 20.2957 6.58625C20.7939 6.54073 21.8085 6.35866 22.4691 6.35638C22.2527 5.96948 22.0159 5.59396 21.7612 5.23436C21.414 5.25257 21.0217 5.27078 20.679 5.31857C17.8923 5.28671 15.3536 5.2503 14.4112 5.23664C11.0091 5.18885 9.32037 5.39368 7.03197 5.46651C5.51012 5.51658 4.05366 5.60989 2.80688 5.67589C2.56564 5.67134 2.23647 5.69637 1.91857 5.71685C1.71115 6.04231 1.51726 6.37914 1.33914 6.72508C1.32111 6.77742 1.30307 6.82522 1.28503 6.86163C1.63224 6.85025 2.01326 6.83887 2.28156 6.82522V6.82749Z" fill="#111111"/>
<path d="M16.4675 8.07753C15.7167 8.08664 13.2683 7.61553 11.8997 7.47215C10.5312 7.32649 8.53138 7.4198 7.18314 7.58594C5.8349 7.75663 3.74716 7.57684 1.59628 7.52677C1.48356 7.52449 1.23781 7.52222 0.980784 7.52222C0.825218 7.88636 0.514085 8.91279 0.394592 9.29742C0.394592 9.29742 3.4473 9.27238 5.09314 9.33155C6.73899 9.393 9.73984 9.25873 12.8331 8.93782C15.2929 8.67837 17.9465 8.42802 19.793 8.5532C21.5674 8.67382 22.0566 8.95603 23.5537 9.01065C23.3643 8.33016 23.123 7.6747 22.8254 7.04883C22.0003 7.09207 21.2653 7.18083 20.2597 7.31283C18.4493 7.54953 17.2183 8.06843 16.4653 8.07981L16.4675 8.07753Z" fill="#111111"/>
<path d="M3.24887 19.6365C4.26343 19.5774 6.92835 19.0858 9.01835 19.2314C11.1083 19.3839 14.9389 19.6593 15.5634 19.6229C16.1879 19.5865 18.5214 19.2246 19.9959 19.0152C20.5596 18.9378 21.0217 18.8582 21.5448 18.7899C19.2474 18.7239 15.7438 18.5828 13.3607 18.4963C10.5718 18.3962 10.22 18.4758 8.58772 18.5373C7.28006 18.5873 3.85084 18.7558 1.93445 18.8696C2.10805 19.1404 2.29067 19.4021 2.48457 19.657C2.70326 19.6616 2.93097 19.657 3.25112 19.6365H3.24887Z" fill="#111111"/>
<path d="M15.4349 21.6483C13.8364 21.7781 8.93942 22.281 6.99372 22.3106C6.56535 22.3174 5.88897 22.3106 5.25543 22.3038C5.50344 22.4745 5.7582 22.6315 6.01748 22.784C7.60696 22.9001 9.56845 22.9934 10.1772 22.957C11.1106 22.9023 15.5544 22.5997 18.35 22.5632C18.7423 22.3174 19.1166 22.0489 19.4751 21.7598C18.102 21.728 16.4562 21.5687 15.4326 21.6506L15.4349 21.6483Z" fill="#111111"/>
<path d="M11.7396 0.974125C12.3867 0.985505 14.0799 0.867158 15.7145 0.762467C14.5466 0.380116 13.2998 0.168457 12.0034 0.168457C10.3846 0.168457 8.84249 0.493911 7.43563 1.07882C7.39504 1.09702 7.35221 1.11068 7.31163 1.12889C7.29584 1.13571 7.27781 1.14482 7.26202 1.15165C8.27208 1.14027 10.8942 0.955918 11.7396 0.971849V0.974125Z" fill="#111111"/>
<path d="M1.56461 18.2565C3.44718 18.1541 5.91595 18.0039 6.81102 17.9174C9.11971 17.6966 12.4768 17.7649 14.7674 17.8195C16.4223 17.8559 20.1424 17.9447 22.5976 17.9766C22.8501 17.5009 23.0711 17.0048 23.2582 16.4927L1.10242 17.3439C1.24446 17.6534 1.39777 17.9584 1.56461 18.2519V18.2565Z" fill="#111111"/>
<path d="M12.8985 20.2735C9.4242 19.9731 7.93618 19.8137 6.22044 19.9571C5.62974 20.0049 4.00644 20.1847 2.95355 20.2348C3.31203 20.6513 3.69982 21.0427 4.11241 21.4069C4.12143 21.4137 4.13045 21.4205 4.13946 21.4274C4.13045 21.4205 4.12143 21.4137 4.11241 21.4069C4.2567 21.532 4.40325 21.6572 4.55205 21.7756C6.82016 21.7164 9.74887 21.4205 10.7634 21.3363C12.0598 21.2294 17.5948 20.5443 20.6227 20.7105C20.8707 20.451 21.1075 20.1847 21.3307 19.9048C20.2079 19.9708 18.6522 20.0186 18.0638 20.1096C16.8237 20.3031 16.3751 20.5762 12.9008 20.2735H12.8985Z" fill="#111111"/>
<path d="M8.3081 23.792C9.48274 24.1766 10.734 24.3883 12.0327 24.3883C13.0856 24.3883 14.1069 24.2472 15.0786 23.99C15.0854 23.99 15.0944 23.9854 15.1012 23.9832C15.2748 23.9377 15.4461 23.8853 15.6152 23.833C15.6806 23.8125 15.7437 23.7897 15.8068 23.7692C15.9534 23.7214 16.0977 23.6714 16.2397 23.6168C16.4246 23.5462 16.6072 23.4688 16.7898 23.3892C15.1711 23.4483 13.4824 23.6054 12.9841 23.6327C11.9853 23.6896 9.96071 23.7692 8.30585 23.792H8.3081Z" fill="#111111"/>
<path d="M16.7989 23.3892H16.7921C16.6118 23.4688 16.4291 23.5439 16.242 23.6167C16.4291 23.5462 16.6163 23.4688 16.7989 23.3892Z" fill="#111111"/>
<path d="M8.15704 15.1453C5.80326 15.0975 2.92866 15.2614 0.38324 15.3206C0.475678 15.6779 0.583898 16.0284 0.705645 16.372C2.23425 16.3766 4.15065 16.5814 4.7436 16.5427C6.01293 16.4631 10.3846 16.1649 11.5524 16.2105C12.7181 16.256 18.9114 16.0034 20.4468 15.9442C20.7962 15.9328 21.8108 15.91 23.4476 15.9282C23.504 15.7439 23.5581 15.5573 23.6077 15.3707C21.5989 15.3707 20.2596 15.3047 19.7817 15.3047C17.8991 15.3047 11.8951 15.2204 8.15479 15.1431L8.15704 15.1453Z" fill="#111111"/>
<path d="M23.8444 10.3218C23.8128 10.1329 23.779 9.94623 23.7407 9.76188C23.6347 9.75733 23.531 9.75505 23.4251 9.74822C21.9709 9.65491 20.6136 9.23387 19.9237 9.22249C16.4652 9.17015 14.7742 9.43643 12.1409 9.65036C9.61123 9.85747 7.68356 10.1033 6.53597 10.06C5.67247 10.0282 3.59374 10.0395 0.207361 10.0464C0.191579 10.1374 0.173542 10.2307 0.15776 10.3218C0.0540491 10.9613 -6.10352e-05 11.6145 -6.10352e-05 12.2836C-6.10352e-05 12.4543 0.00670302 12.625 0.0134668 12.7957H0.123941C0.150996 12.7979 0.193833 12.8025 0.279508 12.807C6.01066 13.0619 6.77947 11.7374 8.50873 11.619C9.34744 11.5621 11.1173 10.5289 12.0349 10.324C12.1747 10.2922 12.2964 10.2785 12.3889 10.2922C12.443 10.3013 12.4948 10.3126 12.5489 10.324C14.4947 10.6859 16.0503 12.4065 18.7468 12.4679C20.1762 12.4998 20.5505 12.7683 22.3474 12.7706C22.6202 12.7706 23.0012 12.7957 23.4251 12.8207C23.5107 12.8252 23.5964 12.8298 23.6843 12.8366H23.7136C23.8016 12.8412 23.8963 12.8434 23.9864 12.848C23.9955 12.6614 24 12.4748 24 12.2859C24 11.6167 23.9436 10.9636 23.8422 10.324L23.8444 10.3218Z" fill="#111111"/>
<path d="M23.8445 13.5693C22.2528 13.5784 19.7276 13.4009 18.6139 13.3668C17.8653 13.3463 16.8305 13.3873 15.7438 13.4282C14.4339 13.4783 13.0428 13.5284 11.9831 13.4692C10.0419 13.3599 5.89124 13.624 4.46409 13.6763C3.39091 13.7195 1.78565 13.6854 0.108239 13.6808H0.0856934C0.117258 13.9676 0.160095 14.2498 0.214205 14.532C0.694431 14.5184 1.18818 14.5047 1.58725 14.4865C3.48335 14.4023 7.91135 14.5343 9.29115 14.5639C10.6732 14.598 16.7741 14.5593 19.0783 14.4524C19.4593 14.4342 21.3081 14.3386 23.84 14.2976C23.8806 14.0586 23.9144 13.8174 23.9392 13.5716H23.8467L23.8445 13.5693Z" fill="#111111"/>
</svg>
