<svg width="25" height="24" viewBox="0 0 25 24" fill="none" xmlns="http://www.w3.org/2000/svg">
<path d="M11.8833 18.68C7.34267 12.0947 6.5 11.4193 6.5 9C6.5 5.686 9.186 3 12.5 3C15.814 3 18.5 5.686 18.5 9C18.5 11.4193 17.6573 12.0933 13.1167 18.6773C13.0477 18.7766 12.9558 18.8578 12.8487 18.914C12.7416 18.9701 12.6226 18.9996 12.5017 18.9999C12.3808 19.0001 12.2616 18.9712 12.1543 18.9155C12.047 18.8598 11.9547 18.779 11.8853 18.68L11.884 18.6773L11.8833 18.68ZM12.5 11.5C13.163 11.5 13.7989 11.2366 14.2678 10.7678C14.7366 10.2989 15 9.66304 15 9C15 8.33696 14.7366 7.70107 14.2678 7.23223C13.7989 6.76339 13.163 6.5 12.5 6.5C11.837 6.5 11.2011 6.76339 10.7322 7.23223C10.2634 7.70107 10 8.33696 10 9C10 9.66304 10.2634 10.2989 10.7322 10.7678C11.2011 11.2366 11.837 11.5 12.5 11.5Z" fill="white"/>
</svg>
