<svg xmlns="http://www.w3.org/2000/svg" width="20" height="20" fill="none" viewBox="0 0 20 20">
    <path fill="#fff" d="M20 8.98c0-4.36-4.487-7.909-10-7.909S0 4.621 0 8.981c0 3.908 3.559 7.184 8.363 7.803.325.069.769.21.88.481.102.247.067.632.034.88 0 0-.116.688-.143.834-.044.247-.201.963.866.526 1.067-.439 5.76-3.304 7.857-5.659C19.306 12.298 20 10.726 20 8.98zM6.085 11.574H4.097c-.288 0-.524-.229-.524-.512v-3.87c0-.282.236-.512.524-.512.29 0 .525.228.525.512v3.36h1.463c.29 0 .524.229.524.512 0 .281-.234.51-.524.51zm2.056-.51c0 .281-.234.512-.524.512-.288 0-.525-.229-.525-.512V7.192c0-.282.234-.512.525-.512.288 0 .524.228.524.512v3.872zm4.783 0c0 .22-.143.415-.358.486-.054.018-.11.026-.166.026-.164 0-.32-.077-.419-.204L9.946 8.669v2.395c0 .281-.234.512-.524.512-.29 0-.525-.229-.525-.512V7.192c0-.22.145-.415.359-.486.054-.018.11-.026.166-.026.163 0 .321.077.418.204l2.038 2.703V7.192c0-.282.236-.512.524-.512.29 0 .524.228.524.512v3.872h-.002zm3.215-2.448c.29 0 .524.229.524.512 0 .281-.234.51-.524.51h-1.461v.914h1.46c.289 0 .525.229.525.512 0 .281-.236.512-.524.512H14.15c-.288 0-.524-.229-.524-.512V7.192c0-.282.234-.512.524-.512h1.988c.29 0 .524.228.524.512 0 .28-.234.512-.524.512h-1.461v.914h1.46v-.002z"/>
</svg>
