<svg width="24" height="24" viewBox="0 0 24 24" fill="none" xmlns="http://www.w3.org/2000/svg">
<path fill-rule="evenodd" clip-rule="evenodd" d="M10.1875 9.7135C10.1875 8.74612 10.9717 7.96191 11.9391 7.96191C12.9065 7.96191 13.6907 8.74612 13.6907 9.7135C13.6907 10.68 12.9079 11.4637 11.9417 11.4651C11.9407 11.4651 11.9398 11.4651 11.9388 11.4651C11.6627 11.4651 11.4388 11.6889 11.4388 11.9651V13.5383C11.4388 13.8144 11.6627 14.0383 11.9388 14.0383C12.2149 14.0383 12.4388 13.8144 12.4388 13.5383V12.4198C13.7199 12.1848 14.6907 11.0625 14.6907 9.7135C14.6907 8.19384 13.4587 6.96191 11.9391 6.96191C10.4194 6.96191 9.1875 8.19384 9.1875 9.7135C9.1875 9.98964 9.41136 10.2135 9.6875 10.2135C9.96364 10.2135 10.1875 9.98964 10.1875 9.7135Z" fill="#111111"/>
<path d="M11.9375 15.3062L11.9375 16.1022" stroke="#111111" stroke-linecap="round" stroke-linejoin="round"/>
<circle cx="12" cy="12" r="8" stroke="#111111" stroke-linecap="round"/>
</svg>
