<svg width="24" height="24" viewBox="0 0 24 24" fill="none" xmlns="http://www.w3.org/2000/svg">
<path fill-rule="evenodd" clip-rule="evenodd" d="M17.8459 7.33271C18.5114 7.51186 19.036 8.03653 19.2152 8.70195C19.5479 9.91763 19.5351 12.4514 19.5351 12.4514C19.5351 12.4514 19.5351 14.9723 19.2152 16.188C19.036 16.8534 18.5114 17.3781 17.8459 17.5572C16.6303 17.8771 11.7675 17.8771 11.7675 17.8771C11.7675 17.8771 6.91763 17.8771 5.68915 17.5444C5.02373 17.3653 4.49907 16.8406 4.31992 16.1752C4 14.9723 4 12.4386 4 12.4386C4 12.4386 4 9.91763 4.31992 8.70195C4.49907 8.03653 5.03653 7.49907 5.68915 7.31992C6.90483 7 11.7675 7 11.7675 7C11.7675 7 16.6303 7 17.8459 7.33271ZM14.2632 12.4387L10.2195 14.7677V10.1097L14.2632 12.4387Z" fill="#111111"/>
</svg>
