<svg width="24" height="24" viewBox="0 0 24 24" fill="none" xmlns="http://www.w3.org/2000/svg">
<g clip-path="url(#clip0_1373_1613)">
<path d="M12.0001 5C10.0991 5 9.86074 5.00814 9.11393 5.042C8.36895 5.07586 7.85996 5.19425 7.41475 5.36724C6.95432 5.546 6.56398 5.7854 6.17496 6.17469C5.78567 6.56372 5.54653 6.95432 5.3675 7.41449C5.19451 7.85969 5.07613 8.36868 5.042 9.11366C5.00788 9.86022 5 10.0986 5 11.9999C5 13.9012 5.00814 14.1393 5.042 14.8861C5.07613 15.6311 5.19425 16.14 5.3675 16.5852C5.54627 17.0457 5.78567 17.436 6.17496 17.825C6.56425 18.2141 6.95459 18.4535 7.41475 18.6325C7.85996 18.8055 8.36895 18.9239 9.11393 18.9577C9.86048 18.9919 10.0988 18.9997 12.0001 18.9997C13.9014 18.9997 14.1395 18.9916 14.8863 18.9577C15.6313 18.9239 16.1403 18.8055 16.5855 18.6325C17.0459 18.4537 17.4363 18.2143 17.8253 17.825C18.2143 17.4358 18.4537 17.0454 18.6328 16.5852C18.8057 16.14 18.9241 15.6311 18.958 14.8861C18.9921 14.1395 19 13.9012 19 11.9999C19 10.0986 18.9919 9.86048 18.958 9.11366C18.9241 8.36868 18.8057 7.85969 18.6328 7.41449C18.454 6.95406 18.2146 6.56372 17.8253 6.17469C17.436 5.78567 17.0457 5.54627 16.5855 5.36724C16.1403 5.19425 15.6313 5.07586 14.8863 5.042C14.1398 5.00788 13.9014 5 12.0001 5V5ZM12.0001 6.26132C13.8691 6.26132 14.0907 6.26841 14.8288 6.30227C15.5114 6.33351 15.882 6.44743 16.1288 6.54325C16.4556 6.6703 16.6887 6.82202 16.9336 7.06694C17.1785 7.31185 17.3302 7.54522 17.4573 7.87177C17.5531 8.11852 17.6673 8.48917 17.6983 9.17168C17.7319 9.90983 17.7392 10.1311 17.7392 12.0004C17.7392 13.8697 17.7321 14.091 17.6983 14.8291C17.667 15.5116 17.5531 15.8823 17.4573 16.129C17.3302 16.4558 17.1785 16.6889 16.9336 16.9338C16.6887 17.1788 16.4556 17.3305 16.1288 17.4575C15.882 17.5534 15.5114 17.6675 14.8288 17.6985C14.091 17.7321 13.8694 17.7395 12.0001 17.7395C10.1309 17.7395 9.90957 17.7324 9.17141 17.6985C8.48891 17.6675 8.11826 17.5534 7.87151 17.4575C7.54469 17.3305 7.31159 17.1788 7.06668 16.9338C6.82176 16.6889 6.67004 16.4558 6.54298 16.129C6.44717 15.8823 6.33298 15.5116 6.30201 14.8291C6.26841 14.091 6.26106 13.8697 6.26106 12.0004C6.26106 10.1311 6.26815 9.90983 6.30201 9.17168C6.33325 8.48917 6.44717 8.11852 6.54298 7.87177C6.67004 7.54495 6.82176 7.31185 7.06668 7.06694C7.31159 6.82202 7.54495 6.6703 7.87151 6.54325C8.11826 6.44743 8.48891 6.33325 9.17141 6.30227C9.90957 6.26867 10.1309 6.26132 12.0001 6.26132Z" fill="#100F0D"/>
<path d="M12.0009 14.3336C10.7123 14.3336 9.66757 13.2888 9.66757 12.0002C9.66757 10.7116 10.7123 9.6668 12.0009 9.6668C13.2896 9.6668 14.3343 10.7116 14.3343 12.0002C14.3343 13.2888 13.2896 14.3336 12.0009 14.3336ZM12.0009 8.40548C10.0156 8.40548 8.40625 10.0149 8.40625 12.0002C8.40625 13.9855 10.0156 15.5949 12.0009 15.5949C13.9862 15.5949 15.5956 13.9855 15.5956 12.0002C15.5956 10.0149 13.9862 8.40548 12.0009 8.40548ZM16.5777 8.26347C16.5777 8.72731 16.2015 9.10347 15.7377 9.10347C15.2738 9.10347 14.8977 8.72731 14.8977 8.26347C14.8977 7.79963 15.2738 7.42346 15.7377 7.42346C16.2015 7.42346 16.5777 7.79963 16.5777 8.26347Z" fill="#100F0D"/>
</g>
<defs>
<clipPath id="clip0_1373_1613">
<rect width="14" height="14" fill="white" transform="translate(5 5)"/>
</clipPath>
</defs>
</svg>
