<svg width="115" height="153" viewBox="0 0 115 153" fill="none" xmlns="http://www.w3.org/2000/svg">
<g clip-path="url(#clip0_1250_1189)">
<path d="M43.7928 114.58C43.8301 114.58 43.8749 114.58 43.9122 114.565C44.054 114.535 44.1808 114.446 44.2555 114.319L50.5084 104.458L56.7314 113.437C56.8135 113.557 56.9478 113.639 57.0896 113.669C57.2388 113.699 57.3806 113.661 57.5075 113.579L59.94 111.868C60.0594 111.779 60.1414 111.659 60.1713 111.51C60.1937 111.368 60.1713 111.218 60.0818 111.099L50.8292 97.7942C50.7248 97.6448 50.5457 97.5551 50.3666 97.5551C50.1875 97.5551 50.0084 97.6522 49.9114 97.8091L40.838 112.13C40.6738 112.384 40.7484 112.727 41.0096 112.892L43.5018 114.49C43.5914 114.543 43.6958 114.58 43.7928 114.58ZM61.686 107.102H69.9835V113.041C69.9835 113.191 70.0432 113.332 70.1402 113.43C70.2446 113.534 70.3864 113.594 70.5356 113.594H73.5203C73.6695 113.594 73.8113 113.534 73.9083 113.43C74.0128 113.332 74.065 113.183 74.065 113.041V98.4366C74.065 98.2947 74.0053 98.1527 73.9083 98.0482C73.8039 97.9436 73.6621 97.8838 73.5203 97.8838H70.5356C70.3939 97.8838 70.2446 97.9436 70.1402 98.0482C70.0357 98.1527 69.9835 98.2947 69.9835 98.4366V103.016H61.686C61.5368 103.016 61.395 103.076 61.298 103.173C61.1936 103.277 61.1339 103.419 61.1339 103.569V106.549C61.1339 106.691 61.1936 106.833 61.298 106.938C61.4025 107.042 61.5443 107.102 61.686 107.102ZM75.6021 128.281H47.7177V126.421H73.3785C73.5203 126.421 73.6695 126.361 73.774 126.256C73.871 126.152 73.9307 126.01 73.9307 125.868V116.657C73.9307 116.507 73.871 116.365 73.774 116.268C73.6695 116.164 73.5278 116.104 73.3785 116.104H44.5017C44.3599 116.104 44.2181 116.164 44.1137 116.268C44.0092 116.373 43.9495 116.515 43.9495 116.657V119.637C43.9495 119.787 44.0092 119.929 44.1137 120.033C44.2181 120.138 44.3599 120.19 44.5017 120.19H69.8417V122.327H44.1808C44.0316 122.327 43.8898 122.387 43.7928 122.491C43.6884 122.588 43.6287 122.738 43.6287 122.88V131.814C43.6287 131.956 43.6884 132.105 43.7928 132.203C43.8973 132.307 44.0391 132.367 44.1808 132.367H75.5947C75.7439 132.367 75.8782 132.307 75.9827 132.203C76.0871 132.098 76.1468 131.963 76.1468 131.814V128.833C76.1468 128.691 76.0871 128.542 75.9827 128.445C75.8782 128.34 75.7364 128.288 75.5947 128.288L75.6021 128.281ZM14.5877 112.705C16.1919 114.221 18.4006 115.14 20.8033 115.14C23.2059 115.14 25.4146 114.221 27.0189 112.705C28.6232 111.188 29.6529 109.037 29.6529 106.669C29.6529 104.293 28.6232 102.142 27.0189 100.625C25.4146 99.1015 23.2059 98.1826 20.8107 98.1826C18.4155 98.1826 16.2069 99.1015 14.5951 100.625C12.9909 102.134 11.9611 104.278 11.9611 106.654V106.676C11.9611 109.045 12.9909 111.188 14.5951 112.697L14.5877 112.705ZM17.4231 103.651C18.2737 102.852 19.4527 102.344 20.8033 102.344C22.1538 102.344 23.3328 102.859 24.1834 103.651C25.0341 104.458 25.5116 105.504 25.5191 106.669C25.5191 107.827 25.0341 108.873 24.1834 109.687C23.3328 110.486 22.1538 110.994 20.8107 110.994C19.4676 110.994 18.2812 110.486 17.4306 109.679C16.5874 108.873 16.1024 107.827 16.0949 106.661C16.0949 105.496 16.5799 104.458 17.4306 103.643L17.4231 103.651ZM39.0397 126.167H22.6762V118.099C22.6762 117.957 22.6165 117.807 22.512 117.71C22.415 117.606 22.2658 117.546 22.124 117.546H19.2885C19.1393 117.546 18.9975 117.606 18.9005 117.71C18.7961 117.807 18.7364 117.957 18.7364 118.099V126.167H0.552167C0.402933 126.167 0.26116 126.226 0.164158 126.331C0.0596937 126.435 0 126.577 0 126.727V129.707C0 129.857 0.0596937 129.999 0.164158 130.096C0.268622 130.2 0.410395 130.26 0.552167 130.26H39.0397C39.1889 130.26 39.3233 130.2 39.4277 130.096C39.5322 129.991 39.5919 129.857 39.5919 129.707V126.727C39.5919 126.577 39.5322 126.435 39.4277 126.331C39.3233 126.226 39.1815 126.167 39.0397 126.167ZM114.448 117.86H98.6588V114.573H109.941C110.09 114.573 110.225 114.52 110.329 114.416C110.433 114.311 110.493 114.169 110.493 114.027V111.039C110.493 110.89 110.433 110.755 110.329 110.651C110.225 110.546 110.083 110.486 109.941 110.486H89.8391V108.133H104.718C104.867 108.133 105.009 108.073 105.106 107.976C105.21 107.872 105.27 107.73 105.27 107.58V98.0033C105.27 97.8614 105.21 97.7195 105.106 97.6149C105.009 97.5178 104.867 97.458 104.718 97.458H88.1229C87.9811 97.458 87.8319 97.5252 87.7349 97.6149C87.6304 97.7195 87.5707 97.8614 87.5707 98.0033V100.984C87.5707 101.133 87.6304 101.268 87.7349 101.372C87.8393 101.477 87.9811 101.537 88.1229 101.537H101.188V104.039H86.3097C86.0038 104.039 85.7501 104.286 85.7501 104.592V114.02C85.7501 114.162 85.8098 114.304 85.9142 114.408C86.0187 114.513 86.1605 114.565 86.3097 114.565H94.5773V117.852H79.3628C79.2211 117.852 79.0793 117.912 78.9748 118.009C78.8704 118.113 78.8107 118.255 78.8107 118.397V121.378C78.8107 121.527 78.8704 121.669 78.9748 121.774C79.0793 121.879 79.2211 121.931 79.3628 121.931H114.448C114.59 121.931 114.731 121.871 114.836 121.774C114.94 121.669 115 121.527 115 121.378V118.397C115 118.248 114.94 118.106 114.836 118.009C114.731 117.904 114.59 117.845 114.448 117.845V117.86ZM113.963 124.59H79.1838C79.0345 124.59 78.8927 124.65 78.7957 124.755C78.6913 124.852 78.6316 125.001 78.6316 125.143V128.131C78.6316 128.281 78.6913 128.423 78.7957 128.527C78.8927 128.624 79.042 128.684 79.1838 128.684H110.426V135.131C110.426 135.28 110.486 135.422 110.59 135.519C110.687 135.624 110.829 135.684 110.978 135.684H113.955C114.105 135.684 114.246 135.624 114.343 135.519C114.448 135.422 114.5 135.273 114.5 135.131V125.143C114.5 125.001 114.448 124.859 114.343 124.755C114.239 124.65 114.097 124.59 113.955 124.59H113.963Z" fill="#111111"/>
<path d="M96.5857 31.4877C96.5857 31.4877 96.5782 31.4578 96.5707 31.4429H95.541C95.8843 31.4653 96.235 31.4802 96.5857 31.4877Z" fill="#111111"/>
<path d="M57.8287 79.4919C53.5308 79.4919 49.382 78.8046 45.502 77.5347C49.382 78.7972 53.5308 79.4919 57.8287 79.4919Z" fill="#111111"/>
<path d="M55.2999 8.85976C59.5158 8.1949 64.448 7.47775 67.858 7.12664C70.6487 6.8353 74.5959 7.08182 80.5504 7.22375C79.2595 6.31237 77.9164 5.4757 76.5211 4.72119C71.2829 4.81084 65.9105 5.0723 62.3811 5.04989C55.2775 4.99759 40.8093 4.97518 39.1453 4.96024C38.9737 4.96024 38.7573 4.96024 38.5185 4.96024C36.6531 5.99862 34.8847 7.17893 33.2207 8.49371C35.4368 8.58336 37.9365 8.75517 40.9809 9.02411C49.3231 9.76367 51.0841 9.51715 55.2999 8.85976Z" fill="#111111"/>
<path d="M60.1198 14.4105C66.5294 14.6346 81.326 14.5599 87.7281 14.6645C87.9371 14.6645 88.2132 14.6645 88.534 14.6645C87.079 12.8791 85.4672 11.2207 83.7287 9.71165C81.7513 9.55477 80.2664 9.40536 79.4158 9.3456C72.1033 8.80773 69.1261 9.10655 63.1343 9.89093C57.1426 10.6678 53.0535 11.9752 50.5763 12.005C48.0915 12.0424 39.9806 11.2804 35.4514 10.7948C33.9889 10.6454 32.2577 10.7201 30.4595 10.8621C28.9447 12.2964 27.5494 13.8427 26.2734 15.4937C31.4071 15.292 36.5855 15.0903 39.7866 14.9558C45.8082 14.6869 53.7102 14.1714 60.1198 14.403V14.4105Z" fill="#111111"/>
<path d="M25.5578 21.858L29.1842 21.9551C33.9374 22.1568 39.3844 22.1867 44.9285 21.8207C50.4725 21.4546 54.7332 21.8207 63.0679 22.5677C71.4101 23.3073 73.0815 24.0842 77.3944 22.5976C79.7896 21.7684 83.5056 21.223 85.177 21.0662C86.826 20.9168 90.1838 20.3191 92.3701 20.3117C91.6537 19.0417 90.8703 17.8091 90.0271 16.6288C88.878 16.6885 87.5796 16.7483 86.4455 16.9052C77.2228 16.8006 68.8209 16.6811 65.7019 16.6363C54.4422 16.4794 48.8533 17.1517 41.2797 17.3908C36.243 17.5551 31.4228 17.8614 27.2964 18.078C26.498 18.0631 25.4086 18.1453 24.3565 18.2125C23.67 19.2808 23.0283 20.3864 22.4388 21.5219C22.3792 21.6937 22.3195 21.8506 22.2598 21.9701C23.4089 21.9327 24.6699 21.8954 25.5578 21.8506V21.858Z" fill="#111111"/>
<path d="M72.5071 25.9596C70.0223 25.9895 61.9189 24.4431 57.3897 23.9725C52.8604 23.4944 46.2418 23.8007 41.7797 24.346C37.3176 24.9063 30.4081 24.3161 23.2896 24.1518C22.9165 24.1443 22.1032 24.1368 21.2525 24.1368C20.7377 25.3321 19.708 28.7012 19.3125 29.9637C19.3125 29.9637 29.4157 29.8815 34.8627 30.0758C40.3098 30.2775 50.2413 29.8367 60.4788 28.7834C68.6195 27.9318 77.402 27.11 83.5131 27.5209C89.3855 27.9168 91.0047 28.8432 95.9593 29.0224C95.3325 26.7888 94.5341 24.6374 93.5491 22.583C90.8182 22.7249 88.3856 23.0163 85.0577 23.4496C79.0659 24.2265 74.9918 25.9297 72.4996 25.9671L72.5071 25.9596Z" fill="#111111"/>
<path d="M28.7584 63.9012C32.1162 63.707 40.9359 62.0934 47.8529 62.5715C54.7699 63.072 67.4474 63.9759 69.5143 63.8564C71.5812 63.7369 79.3041 62.5491 84.184 61.8618C86.0495 61.6078 87.5791 61.3464 89.3102 61.1223C81.7067 60.9056 70.1112 60.4425 62.2242 60.1586C52.994 59.8299 51.83 60.0914 46.4277 60.2931C42.0999 60.4574 30.7507 61.0102 24.4082 61.3837C24.9828 62.2727 25.5872 63.1318 26.2289 63.9685C26.9527 63.9834 27.7063 63.9685 28.7658 63.9012H28.7584Z" fill="#111111"/>
<path d="M69.0881 70.5051C63.7977 70.9309 47.5909 72.5818 41.1514 72.6789C39.7337 72.7014 37.4952 72.6789 35.3984 72.6565C36.2192 73.2168 37.0624 73.7323 37.9205 74.2328C43.181 74.6138 49.6727 74.92 51.6874 74.8005C54.7765 74.6212 69.4836 73.6277 78.7361 73.5081C80.0344 72.7014 81.2731 71.8199 82.4595 70.8711C77.9153 70.7665 72.4683 70.2436 69.0806 70.5125L69.0881 70.5051Z" fill="#111111"/>
<path d="M56.86 2.6445C59.0015 2.68185 64.6053 2.29339 70.015 1.94976C66.1498 0.694741 62.0235 0 57.733 0C52.3755 0 47.2717 1.06826 42.6156 2.98814C42.4813 3.0479 42.3395 3.09272 42.2052 3.15248C42.1529 3.17489 42.0932 3.20478 42.041 3.22719C45.3839 3.18983 54.0618 2.58474 56.86 2.63703V2.6445Z" fill="#111111"/>
<path d="M23.1839 59.3745C29.4145 59.0383 37.5851 58.5453 40.5474 58.2614C48.1882 57.5368 59.2987 57.7609 66.8798 57.9402C72.3567 58.0597 84.6685 58.351 92.7943 58.4556C93.63 56.8943 94.3613 55.2658 94.9806 53.585L21.6543 56.3789C22.1244 57.3948 22.6318 58.3959 23.1839 59.3595V59.3745Z" fill="#111111"/>
<path d="M60.6949 65.9932C49.1964 65.0071 44.2716 64.4842 38.5933 64.9548C36.6383 65.1117 31.2659 65.7018 27.7812 65.8662C28.9677 67.2333 30.2511 68.5182 31.6166 69.7134C31.6464 69.7358 31.6763 69.7582 31.7061 69.7806C31.6763 69.7582 31.6464 69.7358 31.6166 69.7134C32.0941 70.1243 32.5791 70.5351 33.0716 70.9236C40.5781 70.7294 50.2709 69.7582 53.6286 69.4818C57.9191 69.1307 76.2376 66.8821 86.2587 67.4275C87.0795 66.5759 87.863 65.7018 88.6017 64.783C84.8858 64.9996 79.7372 65.1565 77.7897 65.4553C73.6857 66.0903 72.2009 66.9867 60.7024 65.9932H60.6949Z" fill="#111111"/>
<path d="M45.5016 77.542C49.3892 78.8045 53.5304 79.4992 57.8284 79.4992C61.313 79.4992 64.6931 79.036 67.9091 78.1919C67.9315 78.1919 67.9614 78.177 67.9838 78.1695C68.5583 78.0201 69.1254 77.8483 69.685 77.6764C69.9014 77.6092 70.1103 77.5345 70.3193 77.4673C70.8043 77.3104 71.2818 77.146 71.7519 76.9668C72.3638 76.7352 72.9682 76.4812 73.5726 76.2197C68.2151 76.414 62.6262 76.9294 60.9772 77.0191C57.6717 77.2058 50.971 77.4673 45.4941 77.542H45.5016Z" fill="#111111"/>
<path d="M73.6028 76.2197H73.5804C72.9835 76.4812 72.3791 76.7277 71.7598 76.9668C72.3791 76.7352 72.9984 76.4812 73.6028 76.2197Z" fill="#111111"/>
<path d="M45.0014 49.1621C37.2114 49.0052 27.6977 49.5431 19.2734 49.7373C19.5794 50.9101 19.9375 52.0606 20.3405 53.1886C25.3995 53.2035 31.742 53.8759 33.7044 53.7489C37.9053 53.4874 52.3736 52.5088 56.2388 52.6582C60.0965 52.8076 80.5938 51.9784 85.6753 51.7842C86.8318 51.7468 90.1896 51.6721 95.6068 51.7319C95.7934 51.1268 95.9724 50.5142 96.1366 49.9016C89.4882 49.9016 85.0559 49.685 83.4741 49.685C77.2435 49.685 57.373 49.4086 44.994 49.1546L45.0014 49.1621Z" fill="#111111"/>
<path d="M96.921 33.3254C96.8165 32.7053 96.7046 32.0928 96.5778 31.4877C96.2271 31.4727 95.8838 31.4653 95.5331 31.4429C90.7203 31.1366 86.2284 29.7546 83.9451 29.7172C72.4988 29.5454 66.9025 30.4194 58.1872 31.1216C49.8152 31.8014 43.4354 32.6082 39.6374 32.4663C36.7795 32.3617 29.8998 32.3991 18.6923 32.4215C18.6401 32.7203 18.5804 33.0266 18.5282 33.3254C18.1849 35.4246 18.0059 37.5685 18.0059 39.7648C18.0059 40.3251 18.0282 40.8854 18.0506 41.4456H18.4163C18.5058 41.4531 18.6476 41.4681 18.9311 41.483C37.8988 42.3197 40.4432 37.9719 46.1664 37.5835C48.9421 37.3967 54.7996 34.0052 57.8365 33.3329C58.2991 33.2283 58.7021 33.1834 59.008 33.2283C59.1871 33.2582 59.3587 33.2955 59.5378 33.3329C65.9772 34.5206 71.1258 40.1682 80.05 40.3699C84.7808 40.4745 86.0194 41.356 91.9664 41.3635C92.8693 41.3635 94.1303 41.4456 95.5331 41.5278C95.8167 41.5428 96.1002 41.5577 96.3912 41.5801H96.4882C96.7792 41.595 97.0926 41.6025 97.3911 41.6175C97.4209 41.0049 97.4359 40.3923 97.4359 39.7723C97.4359 37.576 97.2493 35.432 96.9135 33.3329L96.921 33.3254Z" fill="#111111"/>
<path d="M96.9206 43.9855C91.6527 44.0154 83.2956 43.4327 79.6095 43.3206C77.1322 43.2534 73.7072 43.3878 70.1107 43.5223C65.7754 43.6867 61.1716 43.851 57.6645 43.6568C51.24 43.2982 37.503 44.1648 32.7797 44.3366C29.2279 44.4785 23.9152 44.3665 18.3637 44.3515H18.2891C18.3935 45.2928 18.5353 46.2191 18.7144 47.1454C20.3037 47.1006 21.9378 47.0558 23.2586 46.996C29.5339 46.7196 44.1887 47.1529 48.7553 47.25C53.3293 47.3621 73.5207 47.2351 81.1466 46.884C82.4076 46.8242 88.5262 46.5105 96.9057 46.376C97.04 45.5916 97.152 44.7997 97.234 43.9929H96.9281L96.9206 43.9855Z" fill="#111111"/>
<path d="M37.0992 146.381C35.2413 145.911 34.7861 145.679 34.7861 144.969V144.94C34.7861 144.417 35.2562 144.006 36.1665 144.006C37.3231 144.006 38.7557 144.925 38.7557 144.925L40.1884 143.281C39.099 142.407 37.7633 141.914 36.2038 141.914C34.0101 141.914 32.4506 143.206 32.4506 145.156V145.194C32.4506 147.323 33.8459 147.928 36.0098 148.473C37.8006 148.936 38.1663 149.242 38.1663 149.84V149.877C38.1663 150.505 37.5843 150.893 36.6142 150.893C35.4353 150.893 34.4503 150.423 33.5176 149.676C33.0923 150.191 32.0626 151.304 32.0924 151.319C33.3684 152.432 34.9801 152.978 36.5695 152.978C38.8826 152.978 40.5093 151.782 40.5093 149.638V149.609C40.5093 147.733 39.2781 146.957 37.1067 146.389L37.0992 146.381Z" fill="#111111"/>
<path d="M24.6528 141.884C21.3398 141.884 18.9297 144.387 18.9297 147.442V147.472C18.9297 150.527 21.3025 153 24.6155 153C27.9285 153 30.3387 150.498 30.3387 147.442V147.412C30.3387 144.357 27.9584 141.884 24.6528 141.884ZM27.8688 147.472C27.8688 149.31 26.5481 150.819 24.6528 150.819C22.7575 150.819 21.3995 149.28 21.3995 147.442V147.412C21.3995 145.567 22.7202 144.066 24.6155 144.066C26.5108 144.066 27.8688 145.605 27.8688 147.442V147.472Z" fill="#111111"/>
<path d="M49.8663 148.226C49.8663 149.93 48.9933 150.811 47.5457 150.811C46.0981 150.811 45.2326 149.9 45.2326 148.152V142.071H42.8672V148.211C42.8672 151.371 44.6282 152.992 47.5158 152.992C50.4035 152.992 52.2242 151.394 52.2242 148.137V142.071H49.8663V148.226Z" fill="#111111"/>
<path d="M94.6965 149.564C93.8533 150.326 93.0997 150.819 91.8759 150.819C90.0404 150.819 88.7644 149.28 88.7644 147.442V147.412C88.7644 145.567 90.0627 144.065 91.8759 144.065C92.9504 144.065 93.7936 144.529 94.6218 145.283L96.1217 143.55C95.1293 142.564 93.913 141.892 91.8909 141.892C88.5928 141.892 86.2871 144.394 86.2871 147.45V147.479C86.2871 150.565 88.6301 153.007 91.7939 153.007C93.8682 153.007 95.0919 152.275 96.1963 151.088L94.6965 149.571V149.564Z" fill="#111111"/>
<path d="M57.6193 142.063H55.2539V152.813H61.1114L62.9693 150.662H57.6193V142.063Z" fill="#111111"/>
<path d="M78.8852 141.884C75.5648 141.884 73.1621 144.387 73.1621 147.442V147.472C73.1621 150.527 75.5424 153 78.8554 153C82.1684 153 84.5785 150.498 84.5785 147.442V147.412C84.5785 144.357 82.1983 141.884 78.8927 141.884H78.8852ZM82.1087 147.472C82.1087 149.31 80.788 150.819 78.8852 150.819C76.9825 150.819 75.6319 149.28 75.6319 147.442V147.412C75.6319 145.567 76.9527 144.066 78.8554 144.066C80.7581 144.066 82.1087 145.605 82.1087 147.442V147.472Z" fill="#111111"/>
<path d="M67.0802 142.063H64.7148V152.813H70.5499L72.4303 150.662H67.0802V142.063Z" fill="#111111"/>
</g>
<defs>
<clipPath id="clip0_1250_1189">
<rect width="115" height="153" fill="white"/>
</clipPath>
</defs>
</svg>
